<svg xmlns="http://www.w3.org/2000/svg" width="304" height="274" viewBox="0 0 304 274" fill="none">
  <path fill-rule="evenodd" clip-rule="evenodd" d="M0.333313 61.1667C0.333313 32.5623 0.333312 18.2753 9.22098 9.38767C18.1086 0.499999 32.3956 0.5 61 0.5H243C271.604 0.5 285.891 0.499999 294.779 9.38767C303.667 18.2753 303.667 32.5623 303.667 61.1667C303.667 89.771 303.667 104.058 294.779 112.946C285.891 121.833 271.604 121.833 243 121.833H61C32.3956 121.833 18.1086 121.833 9.22098 112.946C0.333312 104.058 0.333313 89.771 0.333313 61.1667ZM61 49.7917C57.9831 49.7917 55.0899 50.9901 52.9566 53.1233C50.8234 55.2566 49.625 58.1498 49.625 61.1667C49.625 64.1835 50.8234 67.0768 52.9566 69.21C55.0899 71.3432 57.9831 72.5417 61 72.5417H91.3333C94.3502 72.5417 97.2434 71.3432 99.3766 69.21C101.51 67.0768 102.708 64.1835 102.708 61.1667C102.708 58.1498 101.51 55.2566 99.3766 53.1233C97.2434 50.9901 94.3502 49.7917 91.3333 49.7917H61ZM125.458 61.1667C125.458 58.1498 126.657 55.2566 128.79 53.1233C130.923 50.9901 133.816 49.7917 136.833 49.7917H243C246.017 49.7917 248.91 50.9901 251.043 53.1233C253.177 55.2566 254.375 58.1498 254.375 61.1667C254.375 64.1835 253.177 67.0768 251.043 69.21C248.91 71.3432 246.017 72.5417 243 72.5417H136.833C133.816 72.5417 130.923 71.3432 128.79 69.21C126.657 67.0768 125.458 64.1835 125.458 61.1667ZM0.333313 212.833C0.333313 184.229 0.333312 169.942 9.22098 161.054C18.1086 152.167 32.3956 152.167 61 152.167H243C271.604 152.167 285.891 152.167 294.779 161.054C303.667 169.942 303.667 184.229 303.667 212.833C303.667 241.438 303.667 255.725 294.779 264.612C285.891 273.5 271.604 273.5 243 273.5H61C32.3956 273.5 18.1086 273.5 9.22098 264.612C0.333312 255.725 0.333313 241.438 0.333313 212.833ZM61 201.458C57.9831 201.458 55.0899 202.657 52.9566 204.79C50.8234 206.923 49.625 209.817 49.625 212.833C49.625 215.85 50.8234 218.743 52.9566 220.877C55.0899 223.01 57.9831 224.208 61 224.208H91.3333C94.3502 224.208 97.2434 223.01 99.3766 220.877C101.51 218.743 102.708 215.85 102.708 212.833C102.708 209.817 101.51 206.923 99.3766 204.79C97.2434 202.657 94.3502 201.458 91.3333 201.458H61ZM125.458 212.833C125.458 209.817 126.657 206.923 128.79 204.79C130.923 202.657 133.816 201.458 136.833 201.458H243C246.017 201.458 248.91 202.657 251.043 204.79C253.177 206.923 254.375 209.817 254.375 212.833C254.375 215.85 253.177 218.743 251.043 220.877C248.91 223.01 246.017 224.208 243 224.208H136.833C133.816 224.208 130.923 223.01 128.79 220.877C126.657 218.743 125.458 215.85 125.458 212.833Z" fill="#00C4F0"/>
</svg>