<svg xmlns="http://www.w3.org/2000/svg" width="435" height="403" viewBox="0 0 435 403" fill="none">
  <path d="M378.438 0.421875H56.5625C41.6234 0.421875 27.2961 6.35643 16.7325 16.92C6.16893 27.4836 0.234375 41.8109 0.234375 56.75V274.016C0.234375 288.955 6.16893 303.282 16.7325 313.846C27.2961 324.409 41.6234 330.344 56.5625 330.344H193.359V354.484H153.125C146.723 354.484 140.582 357.028 136.055 361.555C131.528 366.082 128.984 372.223 128.984 378.625C128.984 385.027 131.528 391.168 136.055 395.695C140.582 400.222 146.723 402.766 153.125 402.766H281.875C288.277 402.766 294.418 400.222 298.945 395.695C303.472 391.168 306.016 385.027 306.016 378.625C306.016 372.223 303.472 366.082 298.945 361.555C294.418 357.028 288.277 354.484 281.875 354.484H241.641V330.344H378.438C385.835 330.344 393.159 328.887 399.993 326.056C406.827 323.225 413.037 319.076 418.268 313.846C423.498 308.615 427.647 302.406 430.478 295.571C433.309 288.737 434.766 281.413 434.766 274.016V56.75C434.766 49.3529 433.309 42.0282 430.478 35.1942C427.647 28.3601 423.498 22.1506 418.268 16.92C413.037 11.6895 406.827 7.54035 399.993 4.7096C393.159 1.87885 385.835 0.421875 378.438 0.421875ZM56.5625 48.7031H378.438C380.572 48.7031 382.618 49.5509 384.128 51.06C385.637 52.5691 386.484 54.6158 386.484 56.75V201.594H48.5156V56.75C48.5156 54.6158 49.3634 52.5691 50.8725 51.06C52.3816 49.5509 54.4283 48.7031 56.5625 48.7031ZM378.438 282.062H56.5625C54.4283 282.062 52.3816 281.215 50.8725 279.706C49.3634 278.197 48.5156 276.15 48.5156 274.016V249.875H386.484V274.016C386.484 276.15 385.637 278.197 384.128 279.706C382.618 281.215 380.572 282.062 378.438 282.062Z" fill="#00C4F0"/>
</svg>