<svg xmlns="http://www.w3.org/2000/svg" width="387" height="481" viewBox="0 0 387 481" fill="none">
  <path fill-rule="evenodd" clip-rule="evenodd" d="M184.5 0.0833282C210.005 0.0833282 234.465 10.2151 252.5 28.2499C270.535 46.2846 280.667 70.745 280.667 96.25V120.292C280.667 149.719 293.529 175.828 308.459 200.447L315.431 211.698L327.74 231.052C337.91 247.28 347.406 264.109 352.07 282.741C358.369 307.889 358.682 334.599 350.267 359.29L352.191 366.406L374.79 379.461C378.336 381.511 381.3 384.432 383.4 387.949C385.5 391.466 386.667 395.461 386.789 399.555C386.912 403.649 385.987 407.706 384.102 411.343C382.216 414.979 379.433 418.073 376.016 420.332L296.318 472.983C291.013 476.482 285.006 478.777 278.72 479.705C272.433 480.633 266.019 480.172 259.93 478.355C253.841 476.537 248.224 473.407 243.474 469.186C238.725 464.964 234.958 459.752 232.439 453.918C222.216 455.872 211.833 456.862 201.425 456.875H191.64C181.591 456.875 171.517 455.913 161.588 454.11C157.778 462.891 151.178 470.171 142.811 474.822C134.444 479.472 124.778 481.234 115.308 479.835L20.8243 465.843C16.7706 465.24 12.9381 463.612 9.69084 461.112C6.44356 458.612 3.88927 455.323 2.27055 451.558C0.651828 447.793 0.0224059 443.677 0.442059 439.6C0.861712 435.523 2.31651 431.622 4.66829 428.265L19.6463 406.868L15.463 383.211C14.9128 380.101 14.9808 376.914 15.663 373.83C16.3452 370.746 17.6283 367.827 19.439 365.24C21.2496 362.652 23.5524 360.447 26.2157 358.749C28.879 357.052 31.8506 355.896 34.9608 355.347L41.1876 354.265C34.3598 330.993 35.1291 306.158 40.9472 282.765C45.7315 263.7 53.8335 247.664 61.5749 234.177L68.0181 223.19C78.1637 206.241 88.3333 188.738 88.3333 168.375V96.25C88.3333 70.745 98.4651 46.2846 116.5 28.2499C134.535 10.2151 158.995 0.0833282 184.5 0.0833282ZM90.6173 389.078C87.7514 392.32 84.0635 394.729 79.9428 396.05L76.8173 396.819L66.9843 398.526L68.7153 408.335C69.4644 412.597 69.0491 416.983 67.5132 421.029L66.1909 423.962L113.264 430.934L90.6173 389.078ZM305.742 378.86L296.125 381.432L292.928 382.057C289.73 382.459 286.484 382.214 283.383 381.336L280.354 380.278L277.493 427.785L317.21 401.579L314.758 399.464C312.448 397.207 310.617 394.509 309.372 391.53L308.315 388.476L305.742 378.86ZM246.503 185.757C239.079 192.868 231.218 199.508 222.967 205.64C213.687 212.612 204.479 218.67 196.521 223.599L187.601 228.96C182.216 232.085 176.783 235.163 171.253 237.952C166.734 240.211 161.619 240.993 156.632 240.186C151.644 239.379 147.037 237.025 143.461 233.456C140.429 230.349 137.503 227.142 134.686 223.839L129.733 217.877C128.81 216.731 127.896 215.577 126.992 214.415C122.737 224.729 117.568 233.889 112.639 242.303L109.009 248.41C99.6569 264.181 91.8915 277.284 87.612 294.401C85.4483 303.105 84.126 312.24 84.4866 321.232C89.4566 319.262 94.9423 319.008 100.073 320.51C105.204 322.013 109.686 325.186 112.808 329.526L114.443 332.147L152.573 402.565C162.646 405.907 173.465 407.998 184.788 408.599L191.64 408.792H201.401C209.022 408.792 216.451 408.119 223.616 406.844L230.66 405.354L234.675 338.758C234.903 334.93 236.043 331.212 238.001 327.914C239.959 324.616 242.677 321.835 245.929 319.801C249.181 317.768 252.872 316.543 256.695 316.227C260.517 315.911 264.359 316.514 267.9 317.986L270.689 319.357L293.288 332.411L307.954 328.468C309.469 317.145 308.194 305.485 305.43 294.401C302.04 280.842 294.707 268.364 287.038 256.416L279.416 244.659C267.275 225.714 255.255 206.553 246.503 185.757ZM168.512 147.339C164.892 146.964 161.234 147.416 157.814 148.661L155.313 149.743L145.697 154.551L148.966 160.826C153.848 169.681 159.478 178.103 165.796 185.998C173.97 181.165 184.067 174.698 194.117 167.173L200.752 162.028L207.051 156.739L171.878 147.94L168.512 147.339ZM184.5 48.1667C171.747 48.1667 159.517 53.2326 150.5 62.2499C141.483 71.2673 136.417 83.4975 136.417 96.25V105.506C151.201 98.8375 167.802 97.3468 183.538 101.275L232.583 113.536V96.25C232.583 83.4975 227.517 71.2673 218.5 62.2499C209.483 53.2326 197.252 48.1667 184.5 48.1667Z" fill="#00C4F0"/>
</svg>